<svg id="b68b47b8-4c29-4b94-b904-2f0cde94ab5f" data-name="Layer 1" xmlns="http://www.w3.org/2000/svg" viewBox="0 0 47.22 35.71"><path d="M47.86,27.57l.12-.16.13-.18.12-.19.1-.17.09-.2.09-.18c0-.06.05-.13.07-.2l.07-.19c0-.07,0-.14.05-.21a1.46,1.46,0,0,0,0-.2,2.17,2.17,0,0,0,0-.25.88.88,0,0,1,0-.16,4,4,0,0,0,0-.85.78.78,0,0,1,0-.16,2.17,2.17,0,0,0,0-.25,1.05,1.05,0,0,0,0-.19c0-.07,0-.14-.05-.22s0-.12-.07-.19,0-.13-.07-.2L48.42,23l-.09-.2-.1-.16-.12-.2L48,22.31a1,1,0,0,0-.12-.16,4.12,4.12,0,0,0-.28-.31L34,8.25a4.27,4.27,0,0,0-6.05,6l6.3,6.29H5.89a4.28,4.28,0,1,0,0,8.55H34.25L28,35.42a4.27,4.27,0,0,0,6.05,6L47.58,27.88C47.68,27.78,47.77,27.67,47.86,27.57Z" transform="translate(-1.61 -7)"/></svg>