<svg id="b78ef651-fd8d-42b4-be70-c436e293e6f8" data-name="Layer 1" xmlns="http://www.w3.org/2000/svg" viewBox="0 0 33.51 33.12"><defs><style>.eaa0932e-02a1-474c-ba7f-2c1f54f65be8{fill:#ddab5d;}</style></defs><path class="eaa0932e-02a1-474c-ba7f-2c1f54f65be8" d="M40.63,25.62a6.45,6.45,0,0,0-3.3-2.28,7.77,7.77,0,0,0-2.35-.4,7.66,7.66,0,0,0-2.58.35,8.38,8.38,0,0,0-1.61.66c.3-7.37-5.12-15.36-5.78-16.3v0h0v0c-.64,1-6,9.53-5.19,17a9.07,9.07,0,0,0-2.53-1.16,8.15,8.15,0,0,0-4.94.12A6.52,6.52,0,0,0,9.08,26a5.13,5.13,0,0,0-.95,3.28l0,.41,0,.2.05.19c.06.25.13.49.2.73l.29.64c.06.11.1.21.16.32l.2.33a5.06,5.06,0,0,0,2.11,1.76,4.57,4.57,0,0,0,2.34.39,3,3,0,0,0,1.2-.39,1.48,1.48,0,0,0,.3-.21,1.44,1.44,0,0,0,.27-.28,1.74,1.74,0,0,0,.35-.69,1.76,1.76,0,0,0-.11-1.12,2,2,0,0,0-.39-.56c-.55-.51-1-.54-1.15-.39s-.17.58-.16,1.06a1.64,1.64,0,0,1,0,.23l-.09-.16c0-.1,0-.06,0-.08l0,0-.14-.05a3,3,0,0,1-.83-.47,2.26,2.26,0,0,1-.62-.81L12,30.15s0-.1,0-.16l-.1-.31a2.68,2.68,0,0,0-.05-.3v-.14a.66.66,0,0,0,0-.14,1.63,1.63,0,0,1,.33-1,3.22,3.22,0,0,1,1.46-1.09,4.33,4.33,0,0,1,1.32-.36,4.52,4.52,0,0,1,1.55,0,7.47,7.47,0,0,1,3.37,1.61,11.09,11.09,0,0,1,2.69,3.2,8.45,8.45,0,0,1,1.11,3.76,5.41,5.41,0,0,1-.2,1.73,5.52,5.52,0,0,1-.27.75,6,6,0,0,1-.37.66,6.57,6.57,0,0,1-1.67,1.7c-.48.34-.77.53-.75.58s.36,0,1-.21a6.1,6.1,0,0,0,2.23-1.46,8.85,8.85,0,0,0,.58-.71,6.94,6.94,0,0,0,.49-.86A4.64,4.64,0,0,0,25,36.7a4.59,4.59,0,0,0,.28.64,5,5,0,0,0,.5.85,5.83,5.83,0,0,0,.58.7,6.25,6.25,0,0,0,2.23,1.43c.59.2.93.26.95.21s-.27-.25-.75-.58a6.62,6.62,0,0,1-1.68-1.68,6.84,6.84,0,0,1-.37-.65,4.46,4.46,0,0,1-.28-.75,5.25,5.25,0,0,1-.22-1.71,7.75,7.75,0,0,1,.39-2.23,19.19,19.19,0,0,1,3.19-4.55,1.67,1.67,0,0,0,.08-.2l0,0a7.65,7.65,0,0,1,3.34-1.66,4.84,4.84,0,0,1,1.55-.07,4.71,4.71,0,0,1,1.33.34,3.22,3.22,0,0,1,1.48,1.08,1.67,1.67,0,0,1,.34.94v.28a2.72,2.72,0,0,0,0,.3,3,3,0,0,0-.1.32,1.13,1.13,0,0,0,0,.15.56.56,0,0,0,0,.12,2.32,2.32,0,0,1-.62.82,3.14,3.14,0,0,1-.82.48l-.14.06,0,0s0,0,0,.09l-.08.15a.78.78,0,0,1,0-.22c0-.48,0-.9-.17-1.06s-.61-.11-1.15.4a2.08,2.08,0,0,0-.38.57,1.7,1.7,0,0,0-.1,1.12,1.76,1.76,0,0,0,.36.69,3.44,3.44,0,0,0,.27.27,1.88,1.88,0,0,0,.31.21,3,3,0,0,0,1.21.37,4.56,4.56,0,0,0,2.33-.42,5.1,5.1,0,0,0,2.09-1.79l.19-.33c.06-.11.1-.21.15-.32s.19-.42.28-.64.14-.49.2-.74l0-.19,0-.2,0-.41A5.12,5.12,0,0,0,40.63,25.62ZM25,25.47c-4.73-2.36-.16-9.76-.16-9.76C28.89,23.16,25,25.47,25,25.47Z" transform="translate(-8.12 -7.63)"/></svg>